<?xml version="1.0" encoding="UTF-8" standalone="no"?>
<!-- Created with Inkscape (http://www.inkscape.org/) -->
<svg
   xmlns:svg="http://www.w3.org/2000/svg"
   xmlns="http://www.w3.org/2000/svg"
   version="1.0"
   width="885.82672"
   height="189.2126"
   id="svg2420">
  <defs
     id="defs2422" />
  <g
     transform="translate(-53.52546,-260.36255)"
     id="layer1">
    <g
       transform="translate(17.724261,17.6688)"
       id="g3098">
      <path
         d="M 803.7529,325.1401 C 800.00464,327.77046 794.08635,329.08564 786.12952,329.08564 L 782.18399,329.08564 L 787.51046,300.61204 L 790.53536,300.61204 C 797.11125,300.61204 801.91165,301.59843 804.93655,303.5712 C 807.96147,305.4782 809.47392,308.63463 809.47392,312.90895 C 809.47392,318.4327 807.56691,322.50975 803.7529,325.1401 M 272.09244,370.64524 L 211.7258,370.64524 L 214.68494,354.86311 L 259.00643,354.86311 L 265.77959,317.84086 L 221.52387,317.84086 L 224.08847,303.89999 L 284.38935,303.89999 L 272.09244,370.64524 z M 845.57554,275.62368 C 834.72533,268.19292 818.74593,264.51043 797.70308,264.51043 L 741.67652,264.51043 L 722.08039,370.64524 L 661.71374,370.64524 L 664.60713,354.86311 L 709.19165,354.86311 L 715.89904,317.84086 L 671.24877,317.84086 L 673.94489,303.89999 L 718.5294,303.89999 L 725.8944,264.51043 L 628.63703,264.51043 L 610.09303,365.18725 L 586.74863,365.18725 L 605.42415,264.51043 L 551.56764,264.51043 L 533.02364,365.18725 L 510.46834,365.18725 L 529.14386,264.51043 L 475.3531,264.51043 L 455.75696,370.64524 L 394.79849,370.64524 L 397.69188,354.86311 L 442.27639,354.86311 L 449.04956,317.84086 L 404.33353,317.84086 L 407.02964,303.89999 L 454.50754,303.89999 L 461.67525,264.51043 L 178.51756,264.51043 L 164.51093,340.26464 C 163.06423,332.89965 138.79921,264.51043 138.79921,264.51043 L 85.403003,264.51043 L 58.507634,410.0348 L 111.96959,410.0348 C 111.96959,410.0348 123.87195,341.71134 124.13498,334.87241 L 151.09612,410.0348 L 151.68795,410.0348 L 318.12365,410.0348 L 337.71979,303.89999 L 354.4883,303.89999 L 334.89215,410.0348 L 767.32248,410.0348 L 777.12056,357.29619 L 792.96844,410.0348 L 847.08799,410.0348 L 825.9794,354.20552 C 837.42144,351.77245 846.23313,346.51173 852.54598,338.55492 C 858.79307,330.53233 861.88373,320.47122 861.88373,308.30583 C 861.88373,293.97039 856.49152,283.05443 845.57554,275.62368"
         style="fill:#ffc424;fill-rule:nonzero;stroke:none"
         id="path3739" />
      <path
         d="M -37.96875,115.25 L -66.375,269.125 L -4.4375,269.125 L 6.28125,208.75 L 28.25,269.125 L 201.71875,269.125 L 221.3125,162.9375 L 229.59375,163 L 211.5625,260.59375 C 211.5625,260.59374 208.47992,269.125 218.34375,269.125 L 650.84375,269.125 L 658.21875,229.8125 L 669.96875,269.125 L 733.15625,269.125 L 711.65625,212 C 711.65623,212 729.03282,204.68343 735.9375,195.9375 C 742.71065,187.25734 746.1875,176.20775 746.1875,163.1875 C 746.18752,147.47114 740.06513,135.31361 728.03125,127.09375 C 716.45767,119.20269 699.57869,115.25 677.8125,115.25 L 618.28125,115.25 L 598.75,221.375 L 546.8125,221.375 L 548.125,213.90625 L 589.625,213.90625 L 597.5625,170.375 L 556.21875,170.4375 L 557.46875,163 L 600.28125,163 L 609.03125,115.25 L 505.3125,115.25 L 486.78125,215.9375 C 486.78126,215.93751 471.44844,217.84964 473.75,205.75 C 475.98581,193.58462 490.53125,115.25 490.53125,115.25 L 428.25,115.25 L 409.71875,215.9375 C 409.71877,215.93751 395.29871,217.38932 397.46875,205.75 C 399.57304,194.11068 414.25,115.25 414.25,115.25 L 351.96875,115.25 L 332.375,221.375 L 279.90625,221.375 L 281.28125,213.90625 L 322.90625,213.90625 L 330.84375,170.4375 L 289.21875,170.4375 L 290.5625,163 L 333.875,163 L 342.5625,115.25 L 55.1875,115.25 L 43.8125,176.28125 L 21.84375,115.25 L -37.96875,115.25 z M -31,123.53125 L 16,123.53125 L 46.71875,207.65625 L 62.09375,123.53125 L 332.5625,123.53125 L 326.90625,154.65625 L 283.71875,154.65625 L 279.3125,178.65625 L 320.9375,178.71875 L 316,205.59375 L 274.3125,205.59375 L 269.90625,229.6875 L 339.28125,229.6875 L 358.875,123.53125 L 404.25,123.53125 L 385.5,224.21875 L 416.59375,224.21875 L 435.15625,123.53125 L 480.53125,123.53125 L 461.84375,224.21875 L 493.6875,224.21875 L 512.21875,123.53125 L 599.03125,123.53125 L 593.375,154.65625 L 550.625,154.65625 L 546.15625,178.65625 L 587.65625,178.59375 L 582.71875,205.59375 L 541.21875,205.59375 L 536.8125,229.6875 L 605.65625,229.6875 L 625.25,123.53125 L 677.8125,123.53125 C 697.86897,123.53125 713.24814,127.02956 723.375,134 C 733.1073,140.64163 737.84375,150.16724 737.84375,163.1875 C 737.84377,174.30075 734.99901,183.64152 729.34375,190.875 C 723.68847,197.97694 715.60865,202.79545 705.21875,205.03125 L 700.5,206.0625 L 721.125,260.78125 L 676.15625,260.78125 L 656.3125,193.78125 L 643.9375,260.78125 L 220,260.78125 L 239.59375,154.65625 L 214.40625,154.65625 L 194.8125,260.78125 L 33.6875,260.78125 L 3.90625,174.375 L -11.40625,260.78125 L -56.40625,260.78125 L -31,123.53125 z M 100.78125,154.65625 L 96.625,178.4375 L 139.375,178.4375 L 134.4375,205.59375 L 91.3125,205.59375 L 86.8125,229.6875 L 155.6875,229.6875 L 169.40625,154.65625 L 100.78125,154.65625 z M 107.6875,163 L 159.5,163 L 148.71875,221.375 L 96.8125,221.375 L 98.21875,213.90625 L 141.40625,213.90625 L 149.375,170.5 L 106.21875,170.5 L 107.6875,163 z "
         transform="translate(119.90046,145.11255)"
         style="fill:#000000;fill-rule:nonzero;stroke:none"
         id="path3741" />
      <path
         d="M 813.61673,312.90895 C 813.61673,305.74124 810.13151,301.92722 807.17236,300.08597 C 803.4241,297.58714 798.03187,296.40348 790.53536,296.40348 L 787.51046,296.40348 L 784.02524,296.40348 L 777.25207,333.22844 L 782.18399,333.22844 L 786.12952,333.22844 C 795.07273,333.22844 801.64862,331.71599 806.18597,328.55956 C 809.53968,326.19225 813.61673,321.52337 813.61673,312.90895 M 801.38558,321.72064 C 798.55795,323.75917 793.75755,324.8113 787.24743,324.94283 C 786.85287,324.94283 790.92992,304.75485 790.92992,304.75485 L 790.53536,304.75485 C 797.70308,304.75485 801.05679,306.00427 802.70076,306.99066 C 803.88442,307.84552 805.26535,309.22646 805.26535,312.90895 C 805.26535,318.36694 803.09531,320.53698 801.38558,321.72064"
         style="fill:#000000;fill-rule:nonzero;stroke:none"
         id="path3745" />
      <path
         d="M 867.21021,382.5476 C 867.21021,372.88104 875.03552,365.05573 884.63631,365.05573 C 894.23711,365.05573 902.06241,372.88104 902.06241,382.5476 C 902.06241,392.14839 894.23711,399.97369 884.63631,399.97369 C 875.03552,399.97369 867.21021,392.14839 867.21021,382.5476 M 865.36895,382.5476 C 865.36895,393.13477 873.98337,401.81495 884.63631,401.81495 C 895.28924,401.81495 903.90366,393.13477 903.90366,382.5476 C 903.90366,371.89466 895.28924,363.21449 884.63631,363.21449 C 873.98337,363.21449 865.36895,371.89466 865.36895,382.5476"
         style="fill:#8a9299;fill-rule:nonzero;stroke:none"
         id="path3747" />
      <path
         d="M 881.34837,381.29818 L 883.05809,381.29818 C 883.71568,381.29818 884.37327,381.29818 885.03086,381.16666 C 885.68845,381.16666 886.28028,381.03515 886.80635,380.83786 C 887.26667,380.64059 887.72697,380.37756 888.12153,379.983 C 888.38456,379.58844 888.51608,379.12814 888.51608,378.5363 C 888.51608,377.94447 888.38456,377.48416 888.12153,377.08961 C 887.72697,376.76081 887.26667,376.49778 886.80635,376.30051 C 886.28028,376.16898 885.68845,376.03746 885.03086,375.97171 C 884.37327,375.97171 883.71568,375.90595 883.05809,375.90595 L 881.34837,375.90595 L 881.34837,381.29818 z M 876.15341,372.81529 L 881.74291,372.81529 C 883.18962,372.81529 884.57055,372.81529 886.08301,372.88104 C 887.46394,372.9468 888.77912,373.07832 889.96277,373.40711 C 891.14643,373.73591 892.13282,374.26198 892.85617,374.98533 C 893.51376,375.70867 893.90831,376.82657 893.90831,378.20751 C 893.90831,379.39117 893.44799,380.37756 892.46161,381.23242 C 891.60675,382.08728 890.29157,382.61336 888.58184,382.81063 L 888.58184,382.87639 C 889.30518,382.94214 889.83126,383.13943 890.29157,383.59973 C 890.75189,383.99429 891.08068,384.45461 891.34371,384.91491 L 895.48653,392.67447 L 889.69974,392.67447 L 886.60908,386.49312 C 886.28028,385.76979 885.88572,385.17795 885.35966,384.84915 C 884.83359,384.58612 884.04448,384.38884 882.99233,384.38884 L 881.34837,384.38884 L 881.34837,392.67447 L 876.15341,392.67447 L 876.15341,372.81529 z "
         style="fill:#848b92;fill-rule:nonzero;stroke:none"
         id="path3749" />
    </g>
  </g>
</svg>
